<svg id="Layer_1" data-name="Layer 1" xmlns="http://www.w3.org/2000/svg" viewBox="0 0 1501.84 355.7"><defs><style>.cls-1{fill:transparent;}.cls-2{fill:#ab0634;}.cls-2,.cls-3{fill-rule:evenodd;}.cls-3{fill:#fff;}</style></defs><rect class="cls-1" x="1.84" width="1500" height="355.7"/><path class="cls-2" d="M-379,416.43l178.19-83.92c28.07,61.17,21.13,117.68-14.81,170.31l-163.26-77.11c-11.17-5.28-11.37-4-.12-9.28m-52.88-22.77,315.09-149,0,49-43.65,19.85c28.85,97.9-16.37,162.44-83.65,217.6l36.6-24.81,90.67,42.94,0,48.73L-432,446.78C-456,435.46-456,404.94-431.91,393.66Z" transform="translate(449.99 -243.11)"/><path class="cls-3" d="M794.78,355.35v0H708.11v130H684.61V332.82l121,0c51.36,5.72,51.15,86.52,3.54,93.07l-28.78,0c10,26.53,30.64,49.3,80.33,60.49-39.62,3.23-102.13-6.68-112-82.16h42.56c37.56,2.41,37.35-48.12,3.49-48.8M353.25,334.21H514v22.57H445.35v130h-23.5v-130H353.23Zm-186-.12,0,152.65,23.46.09V361.22l109.2,125.6,29-.06V334l-22.54,0-.08,125.57L196.92,334.07ZM969,340l77.9,146.81-25.64,0L957,364.66c-2.76-5.24-2.09-5.15-4.85.06-21.6,40.75-43,81.38-64.58,122.08H862.14l79-146.82A15.67,15.67,0,0,1,969,340Zm-379.51,0,77.9,146.81-25.63,0L577.54,364.66c-2.77-5.24-2.1-5.15-4.85.06-21.6,40.75-43,81.38-64.58,122.08H482.63l79-146.82A15.67,15.67,0,0,1,589.44,340ZM67.05,340,145,486.83l-25.63,0L55.15,364.66c-2.77-5.24-2.1-5.15-4.85.06-21.6,40.75-43,81.38-64.58,122.08H-39.75L39.28,340A15.67,15.67,0,0,1,67.05,340Z" transform="translate(449.99 -243.11)"/><path class="cls-3" d="M916.08,557.55V521.31h4.35v36.24Zm-311.55,0V521.31h4.36v36.24Zm-133.08,0V521.31h4.35v36.24Zm363.4,0V521.31h23.81v4.28H839.2v11.09h18.23v4.25H839.2v12.34h20.23v4.28Zm-447.39,0V521.31h23.82v4.28H391.82v11.09H410v4.25H391.82v12.34H412v4.28Zm297.8-4.28h7.86a19.19,19.19,0,0,0,5.71-.67,8.07,8.07,0,0,0,3.29-1.88,11.22,11.22,0,0,0,2.7-4.58,22.2,22.2,0,0,0,1-7q0-5.67-1.89-8.73a9.48,9.48,0,0,0-4.61-4.09,19.14,19.14,0,0,0-6.29-.74h-7.74Zm-4.86,4.28V521.31h12.67a31.64,31.64,0,0,1,6.55.52,12.61,12.61,0,0,1,5.39,2.59,14.74,14.74,0,0,1,4.35,6.2,23.76,23.76,0,0,1,1.45,8.61,24.74,24.74,0,0,1-1,7.32,17.4,17.4,0,0,1-2.51,5.28,12.94,12.94,0,0,1-3.34,3.28,13.71,13.71,0,0,1-4.39,1.82,25.06,25.06,0,0,1-5.91.62Zm-332.25-4.28h8.37a18.6,18.6,0,0,0,3-.17,6.81,6.81,0,0,0,2.57-1,5.05,5.05,0,0,0,1.7-2,6.79,6.79,0,0,0,.66-3.06,6.38,6.38,0,0,0-1-3.52,5.1,5.1,0,0,0-2.68-2.1,15.54,15.54,0,0,0-4.92-.6h-7.77Zm0-16.73h7.27a15.24,15.24,0,0,0,4.25-.42,4.63,4.63,0,0,0,2.55-1.81,5.52,5.52,0,0,0,.86-3.16,6.16,6.16,0,0,0-.8-3.18,4.2,4.2,0,0,0-2.29-1.88,18.24,18.24,0,0,0-5.12-.5h-6.72Zm-4.46,21V521.31h12.62a14.65,14.65,0,0,1,6.18,1.1,8,8,0,0,1,3.65,3.39,9.41,9.41,0,0,1,1.33,4.78,8.59,8.59,0,0,1-4.71,7.69,8.75,8.75,0,0,1,4.69,3.28A9.24,9.24,0,0,1,369.1,547a11.23,11.23,0,0,1-1,4.74,9,9,0,0,1-2.46,3.37,10,10,0,0,1-3.68,1.79,20.63,20.63,0,0,1-5.43.61ZM433,537.31h8.45a10.41,10.41,0,0,0,4.21-.69,4.69,4.69,0,0,0,2.31-2.17,6.82,6.82,0,0,0,.79-3.25,6,6,0,0,0-1.53-4.23q-1.51-1.65-4.83-1.65H433Zm-3.93,20.24V521.31h13.17a14.64,14.64,0,0,1,6,1,7.14,7.14,0,0,1,3.3,3.44,12,12,0,0,1,1.24,5.47,10.28,10.28,0,0,1-2.05,6.5,9.63,9.63,0,0,1-6.32,3.36,10,10,0,0,1,2.37,1.81,24.35,24.35,0,0,1,3.26,4.82l5.17,9.86h-4.94L446.42,550c-1.15-2.16-2.1-3.83-2.85-5a9.6,9.6,0,0,0-2-2.42,5.26,5.26,0,0,0-1.79-1,10.17,10.17,0,0,0-2.19-.17H433v16.09ZM280.58,537.31H289a10.43,10.43,0,0,0,4.22-.69,4.77,4.77,0,0,0,2.31-2.17,6.94,6.94,0,0,0,.79-3.25,6,6,0,0,0-1.53-4.23q-1.53-1.65-4.84-1.65h-9.4Zm-3.93,20.24V521.31h13.17a14.61,14.61,0,0,1,6,1,7.16,7.16,0,0,1,3.31,3.44,12.14,12.14,0,0,1,1.23,5.47,10.28,10.28,0,0,1-2,6.5,9.63,9.63,0,0,1-6.32,3.36,9.78,9.78,0,0,1,2.37,1.81,24.36,24.36,0,0,1,3.27,4.82l5.17,9.86h-4.95L294,550c-1.15-2.16-2.1-3.83-2.84-5a9.82,9.82,0,0,0-2-2.42,5.3,5.3,0,0,0-1.8-1,10.11,10.11,0,0,0-2.19-.17h-4.56v16.09ZM733.1,539.36c0,4.37,1.24,7.8,3.71,10.32a13.45,13.45,0,0,0,18.72,0c2.45-2.54,3.69-6.14,3.69-10.81a17.8,17.8,0,0,0-1.58-7.72A11.75,11.75,0,0,0,753,526a13.14,13.14,0,0,0-6.81-1.81,13.28,13.28,0,0,0-9.25,3.5Q733.1,531.17,733.1,539.36Zm-5.21-.08q0-9,5.1-14.12a17.9,17.9,0,0,1,13.2-5.11,19.07,19.07,0,0,1,9.54,2.4,16,16,0,0,1,6.47,6.69,20.69,20.69,0,0,1,2.23,9.72,20.43,20.43,0,0,1-2.34,9.86,15.6,15.6,0,0,1-6.65,6.59,19.72,19.72,0,0,1-9.28,2.24,18.77,18.77,0,0,1-9.64-2.47,16.22,16.22,0,0,1-6.44-6.75A19.59,19.59,0,0,1,727.89,539.28Zm-501.23.08c0,4.37,1.24,7.8,3.71,10.32a13.45,13.45,0,0,0,18.72,0c2.45-2.54,3.69-6.14,3.69-10.81a17.8,17.8,0,0,0-1.59-7.72,11.67,11.67,0,0,0-4.6-5.12,13.87,13.87,0,0,0-16.06,1.69Q226.66,531.17,226.66,539.36Zm-5.21-.08q0-9,5.1-14.12a17.9,17.9,0,0,1,13.2-5.11,19,19,0,0,1,9.53,2.4,16.07,16.07,0,0,1,6.48,6.69,20.81,20.81,0,0,1,2.22,9.72,20.32,20.32,0,0,1-2.34,9.86,15.58,15.58,0,0,1-6.64,6.59,19.75,19.75,0,0,1-9.28,2.24,18.72,18.72,0,0,1-9.64-2.47,16.25,16.25,0,0,1-6.45-6.75A19.7,19.7,0,0,1,221.45,539.28Zm283.4,18.27v-32H492.26v-4.28h30.28v4.28H509.9v32Zm-314.57,0v-32H177.69v-4.28H208v4.28H195.33v32Zm687.15-9.73a9.47,9.47,0,0,0,.57,1.24,7.46,7.46,0,0,0,3.17,2.92,10.23,10.23,0,0,0,4.83,1.11,9.92,9.92,0,0,0,4.21-.84,6,6,0,0,0,2.72-2.31,6.09,6.09,0,0,0,.9-3.22,5.45,5.45,0,0,0-.87-3.08,6.31,6.31,0,0,0-2.83-2.21,47,47,0,0,0-5.61-1.84,25.49,25.49,0,0,1-6.08-2.34,9.25,9.25,0,0,1-3.36-3.49,9.8,9.8,0,0,1-1.1-4.68,10.77,10.77,0,0,1,1.35-5.3,8.88,8.88,0,0,1,3.95-3.76,13,13,0,0,1,5.78-1.27,13.55,13.55,0,0,1,6.18,1.34,9.39,9.39,0,0,1,4.11,3.95c.12.21.22.42.32.63l-3.15,3.48a7,7,0,0,0-1.8-3.21,7.56,7.56,0,0,0-5.49-1.82c-2.52,0-4.35.55-5.51,1.65a5.33,5.33,0,0,0-1.73,4,4.7,4.7,0,0,0,1.22,3.33c.81.87,2.9,1.76,6.29,2.67a36.43,36.43,0,0,1,7,2.4,10,10,0,0,1,4.06,3.82,10.62,10.62,0,0,1,1.31,5.34A11.67,11.67,0,0,1,896.4,552a10.24,10.24,0,0,1-4.13,4.12,12.48,12.48,0,0,1-6.07,1.47,15.4,15.4,0,0,1-7.16-1.49,10.61,10.61,0,0,1-4.54-4.46c-.11-.2-.22-.41-.32-.62Zm-94.07,9.73V521.31h5.18l20.07,28.45V521.31h4.85v36.24h-5.19l-20.06-28.48v28.48Zm-153.88,0V521.31h5.19l20.07,28.45V521.31h4.85v36.24H654.4l-20.07-28.48v28.48Zm-497.95,0V521.31h5.18l20.07,28.45V521.31h4.85v36.24h-5.18l-20.07-28.48v28.48Zm816.61-14.89h13l-4-10q-1.82-4.56-2.7-7.52a44.2,44.2,0,0,1-2.06,6.93Zm-11,14.89,14.68-36.24h5.45l15.64,36.24h-5.77l-4.46-11h-16l-4.19,11Zm-398.3-14.89h13l-4-10c-1.21-3-2.12-5.55-2.71-7.52A44.2,44.2,0,0,1,543,532Zm-11,14.89,14.68-36.24h5.44l15.64,36.24h-5.77l-4.45-11h-16l-4.19,11ZM91.18,542.66h13l-4-10q-1.81-4.56-2.7-7.52A44.25,44.25,0,0,1,95.37,532Zm-11,14.89,14.68-36.24h5.45l15.64,36.24h-5.77l-4.46-11h-16l-4.19,11Zm-39.71,0V521.31h4.49v18l16.84-18h6.08L53.62,536l14.85,21.56H62.55L50.48,539.2,44.93,545v12.56Z" transform="translate(449.99 -243.11)"/></svg>